# xmcd
#
# Track frame offsets: 
#        150
#        11849
#        21066
#        44546
#        63141
#        76172
#        91920
#        110437
#        128562
#        146164
#        158699
#        173062
#        185518
#        201239
#        213515
#
# Disc length: 3055 seconds
#
# Revision: 0
# Processed by: cddbd v1.5.2PL0 Copyright (c) Steve Scherf et al.
# Submitted via: ExactAudioCopy v1.0b2
#
DISCID=c50bed0f
DTITLE=DengLiJun 邓丽君 - 甜蜜蜜3 邓丽君
DYEAR=1982
DGENRE=Pop
TTITLE0=小城故事
TTITLE1=路边的野花不要采
TTITLE2=忘不了
TTITLE3=何日君再来
TTITLE4=又见炊烟
TTITLE5=千言万语
TTITLE6=但愿人长久
TTITLE7=山茶花
TTITLE8=我和你
TTITLE9=云河
TTITLE10=爱在我心中
TTITLE11=独上西楼
TTITLE12=月亮代表我的心
TTITLE13=奈河
TTITLE14=几多愁
EXTD=
EXTT0=
EXTT1=
EXTT2=
EXTT3=
EXTT4=
EXTT5=
EXTT6=
EXTT7=
EXTT8=
EXTT9=
EXTT10=
EXTT11=
EXTT12=
EXTT13=
EXTT14=
PLAYORDER=
